<svg width="20" height="20" viewBox="0 0 20 20" fill="none" xmlns="http://www.w3.org/2000/svg">
<path fill-rule="evenodd" clip-rule="evenodd" d="M1.6665 2.49984C1.6665 2.0396 2.0396 1.6665 2.49984 1.6665H8.33317C8.79341 1.6665 9.1665 2.0396 9.1665 2.49984V8.33317C9.1665 8.79341 8.79341 9.1665 8.33317 9.1665H2.49984C2.0396 9.1665 1.6665 8.79341 1.6665 8.33317V2.49984ZM3.33317 3.33317V7.49984H7.49984V3.33317H3.33317Z" fill="#828FA2"/>
<path fill-rule="evenodd" clip-rule="evenodd" d="M10.8335 2.49984C10.8335 2.0396 11.2066 1.6665 11.6668 1.6665H17.5002C17.9604 1.6665 18.3335 2.0396 18.3335 2.49984V8.33317C18.3335 8.79341 17.9604 9.1665 17.5002 9.1665H11.6668C11.2066 9.1665 10.8335 8.79341 10.8335 8.33317V2.49984ZM12.5002 3.33317V7.49984H16.6668V3.33317H12.5002Z" fill="#828FA2"/>
<path fill-rule="evenodd" clip-rule="evenodd" d="M10.8335 11.6668C10.8335 11.2066 11.2066 10.8335 11.6668 10.8335H17.5002C17.9604 10.8335 18.3335 11.2066 18.3335 11.6668V17.5002C18.3335 17.9604 17.9604 18.3335 17.5002 18.3335H11.6668C11.2066 18.3335 10.8335 17.9604 10.8335 17.5002V11.6668ZM12.5002 12.5002V16.6668H16.6668V12.5002H12.5002Z" fill="#828FA2"/>
<path fill-rule="evenodd" clip-rule="evenodd" d="M1.6665 11.6668C1.6665 11.2066 2.0396 10.8335 2.49984 10.8335H8.33317C8.79341 10.8335 9.1665 11.2066 9.1665 11.6668V17.5002C9.1665 17.9604 8.79341 18.3335 8.33317 18.3335H2.49984C2.0396 18.3335 1.6665 17.9604 1.6665 17.5002V11.6668ZM3.33317 12.5002V16.6668H7.49984V12.5002H3.33317Z" fill="#828FA2"/>
</svg>
