<svg width="20" height="20" viewBox="0 0 20 20" fill="none" xmlns="http://www.w3.org/2000/svg">
<path fill-rule="evenodd" clip-rule="evenodd" d="M5.83317 13.2509V15.8291L10.0517 13.3363L10.4926 13.3291C12.2459 13.3004 13.8237 13.1239 15.0035 12.9444C15.7481 12.8311 16.2654 12.3114 16.3778 11.6589C16.5337 10.7539 16.6665 9.60727 16.6665 8.33317C16.6665 7.05907 16.5337 5.91244 16.3778 5.00739C16.2654 4.35491 15.7481 3.83527 15.0035 3.72198C13.7131 3.52564 11.9484 3.33317 9.99984 3.33317C8.05123 3.33317 6.28657 3.52564 4.99619 3.72198C4.25162 3.83527 3.73425 4.35491 3.62186 5.00739C3.46597 5.91244 3.33317 7.05907 3.33317 8.33317C3.33317 9.60727 3.46597 10.7539 3.62186 11.6589C3.71946 12.2256 4.11529 12.6797 4.6924 12.8716L5.83317 13.2509ZM1.97939 4.72448C2.22121 3.32057 3.33711 2.28857 4.74548 2.07427C6.09493 1.86895 7.94616 1.6665 9.99984 1.6665C12.0535 1.6665 13.9047 1.86895 15.2542 2.07427C16.6626 2.28857 17.7785 3.32057 18.0203 4.72448C18.1888 5.70293 18.3332 6.94588 18.3332 8.33317C18.3332 9.72046 18.1888 10.9634 18.0203 11.9419C17.7785 13.3458 16.6626 14.3778 15.2542 14.5921C14.0197 14.7799 12.3652 14.9653 10.5199 14.9956L5.42378 18.0069C4.86826 18.3352 4.1665 17.9347 4.1665 17.2895V14.4531C3.03864 14.0781 2.18697 13.147 1.97939 11.9419C1.81085 10.9634 1.6665 9.72046 1.6665 8.33317C1.6665 6.94588 1.81085 5.70293 1.97939 4.72448Z" fill="#828FA2"/>
<path fill-rule="evenodd" clip-rule="evenodd" d="M5.83333 5.8335C5.3731 5.8335 5 6.20659 5 6.66683C5 7.12707 5.3731 7.50016 5.83333 7.50016H14.1667C14.6269 7.50016 15 7.12707 15 6.66683C15 6.20659 14.6269 5.8335 14.1667 5.8335H5.83333ZM5.83333 9.16683C5.3731 9.16683 5 9.53993 5 10.0002C5 10.4604 5.3731 10.8335 5.83333 10.8335H9.16667C9.6269 10.8335 10 10.4604 10 10.0002C10 9.53993 9.6269 9.16683 9.16667 9.16683H5.83333Z" fill="#828FA2"/>
</svg>
