<svg width="20" height="20" viewBox="0 0 20 20" fill="none" xmlns="http://www.w3.org/2000/svg">
<path fill-rule="evenodd" clip-rule="evenodd" d="M4.33317 1.16683C4.49055 0.956991 4.73754 0.833496 4.99984 0.833496H14.9998C15.2621 0.833496 15.5091 0.956991 15.6665 1.16683L18.1665 4.50016C18.2747 4.64441 18.3332 4.81985 18.3332 5.00016V16.6668C18.3332 17.3299 18.0698 17.9658 17.6009 18.4346C17.1321 18.9034 16.4962 19.1668 15.8332 19.1668H4.1665C3.50346 19.1668 2.86758 18.9034 2.39874 18.4346C1.9299 17.9658 1.6665 17.3299 1.6665 16.6668V5.00016C1.6665 4.81985 1.72499 4.64441 1.83317 4.50016L4.33317 1.16683ZM5.4165 2.50016L3.33317 5.27794V16.6668C3.33317 16.8878 3.42097 17.0998 3.57725 17.2561C3.73353 17.4124 3.94549 17.5002 4.1665 17.5002H15.8332C16.0542 17.5002 16.2661 17.4124 16.4224 17.2561C16.5787 17.0998 16.6665 16.8878 16.6665 16.6668V5.27794L14.5832 2.50016H5.4165Z" fill="#828FA2"/>
<path fill-rule="evenodd" clip-rule="evenodd" d="M1.6665 5.00016C1.6665 4.53993 2.0396 4.16683 2.49984 4.16683H17.4998C17.9601 4.16683 18.3332 4.53993 18.3332 5.00016C18.3332 5.4604 17.9601 5.8335 17.4998 5.8335H2.49984C2.0396 5.8335 1.6665 5.4604 1.6665 5.00016Z" fill="#828FA2"/>
<path fill-rule="evenodd" clip-rule="evenodd" d="M6.6665 7.50016C7.12674 7.50016 7.49984 7.87326 7.49984 8.3335C7.49984 8.99654 7.76323 9.63242 8.23207 10.1013C8.70091 10.5701 9.3368 10.8335 9.99984 10.8335C10.6629 10.8335 11.2988 10.5701 11.7676 10.1013C12.2364 9.63242 12.4998 8.99654 12.4998 8.3335C12.4998 7.87326 12.8729 7.50016 13.3332 7.50016C13.7934 7.50016 14.1665 7.87326 14.1665 8.3335C14.1665 9.43856 13.7275 10.4984 12.9461 11.2798C12.1647 12.0612 11.1049 12.5002 9.99984 12.5002C8.89477 12.5002 7.83496 12.0612 7.05356 11.2798C6.27216 10.4984 5.83317 9.43856 5.83317 8.3335C5.83317 7.87326 6.20627 7.50016 6.6665 7.50016Z" fill="#828FA2"/>
</svg>
