<svg width="18" height="6" viewBox="0 0 18 6" fill="none" xmlns="http://www.w3.org/2000/svg">
<path d="M-0.000139427 4.00452C-0.000139415 3.73928 0.105228 3.4849 0.292785 3.29734C0.480341 3.10978 0.734724 3.00442 0.999969 3.00442L14.5914 3.00442L13.2913 1.71428C13.103 1.52595 12.9972 1.27053 12.9972 1.0042C12.9972 0.737869 13.103 0.482447 13.2913 0.294123C13.4796 0.105799 13.735 -1.84443e-07 14.0014 -1.74785e-07C14.2677 -1.65128e-07 14.5231 0.105799 14.7115 0.294123L17.7118 3.29445C17.8506 3.43509 17.9446 3.61368 17.9819 3.80769C18.0193 4.0017 17.9984 4.20244 17.9218 4.38457C17.8468 4.56721 17.7194 4.72355 17.5556 4.83389C17.3919 4.94424 17.1992 5.00365 17.0017 5.00463L0.999969 5.00463C0.734723 5.00463 0.480341 4.89926 0.292785 4.71171C0.105228 4.52415 -0.000139438 4.26977 -0.000139427 4.00452Z" fill="#393D46"/>
</svg>
