<svg width="20" height="20" viewBox="0 0 20 20" fill="none" xmlns="http://www.w3.org/2000/svg">
<path fill-rule="evenodd" clip-rule="evenodd" d="M4.95951 10.0002C4.70203 10.0002 4.50618 10.2314 4.54851 10.4853L5.34665 15.2742C5.48059 16.0778 6.1759 16.6668 6.99064 16.6668H13.0098C13.8245 16.6668 14.5198 16.0778 14.6538 15.2742L15.4519 10.4853C15.4942 10.2314 15.2984 10.0002 15.0409 10.0002H4.95951ZM3.48393 8.3335C2.96898 8.3335 2.57728 8.79589 2.66194 9.30383L3.70266 15.5482C3.97054 17.1555 5.36117 18.3335 6.99064 18.3335H13.0098C14.6393 18.3335 16.0299 17.1555 16.2978 15.5482L17.3385 9.30383C17.4231 8.79589 17.0314 8.3335 16.5165 8.3335H3.48393Z" fill="#828FA2"/>
<path d="M8.33333 11.6665C7.8731 11.6665 7.5 12.0396 7.5 12.4998V14.1665C7.5 14.6267 7.8731 14.9998 8.33333 14.9998C8.79357 14.9998 9.16667 14.6267 9.16667 14.1665V12.4998C9.16667 12.0396 8.79357 11.6665 8.33333 11.6665Z" fill="#828FA2"/>
<path d="M11.6667 11.6665C11.2064 11.6665 10.8333 12.0396 10.8333 12.4998V14.1665C10.8333 14.6267 11.2064 14.9998 11.6667 14.9998C12.1269 14.9998 12.5 14.6267 12.5 14.1665V12.4998C12.5 12.0396 12.1269 11.6665 11.6667 11.6665Z" fill="#828FA2"/>
<path d="M8.92243 3.08909C9.24786 2.76366 9.24786 2.23602 8.92243 1.91058C8.59699 1.58514 8.06935 1.58514 7.74392 1.91058L4.41058 5.24392C4.08514 5.56935 4.08514 6.09699 4.41058 6.42243C4.73602 6.74786 5.26366 6.74786 5.58909 6.42243L8.92243 3.08909Z" fill="#828FA2"/>
<path d="M11.0772 3.08909C10.7518 2.76366 10.7518 2.23602 11.0772 1.91058C11.4027 1.58514 11.9303 1.58514 12.2558 1.91058L15.5891 5.24392C15.9145 5.56935 15.9145 6.09699 15.5891 6.42243C15.2637 6.74786 14.736 6.74786 14.4106 6.42243L11.0772 3.08909Z" fill="#828FA2"/>
<path fill-rule="evenodd" clip-rule="evenodd" d="M15.8332 6.66667H4.1665C3.70627 6.66667 3.33317 7.03976 3.33317 7.5C3.33317 7.96024 3.70627 8.33333 4.1665 8.33333H15.8332C16.2934 8.33333 16.6665 7.96024 16.6665 7.5C16.6665 7.03976 16.2934 6.66667 15.8332 6.66667ZM4.1665 5C2.78579 5 1.6665 6.11929 1.6665 7.5C1.6665 8.88071 2.78579 10 4.1665 10H15.8332C17.2139 10 18.3332 8.88071 18.3332 7.5C18.3332 6.11929 17.2139 5 15.8332 5H4.1665Z" fill="#828FA2"/>
</svg>
